<svg width="10" height="10" viewBox="0 0 10 10" fill="none" xmlns="http://www.w3.org/2000/svg">
<g opacity="0.3">
<path d="M5.08482 4.16685L8.20074 1.05079C8.28645 0.965015 8.33374 0.850577 8.33388 0.72855C8.33388 0.606456 8.28658 0.491882 8.20074 0.406239L7.92768 0.133254C7.84184 0.0472729 7.7274 0.000183105 7.60524 0.000183105C7.48328 0.000183105 7.36884 0.0472729 7.28299 0.133254L4.16707 3.24911L1.05102 0.133254C0.965307 0.0472729 0.850801 0.000183105 0.728706 0.000183105C0.606747 0.000183105 0.492241 0.0472729 0.406531 0.133254L0.133342 0.406239C-0.0444473 0.584029 -0.0444473 0.873207 0.133342 1.05079L3.24933 4.16685L0.133342 7.28277C0.0475641 7.36868 0.000338775 7.48312 0.000338775 7.60515C0.000338775 7.72718 0.0475641 7.84161 0.133342 7.92746L0.406463 8.20045C0.492173 8.28636 0.606747 8.33352 0.728638 8.33352C0.850733 8.33352 0.965239 8.28636 1.05095 8.20045L4.16701 5.08452L7.28293 8.20045C7.36877 8.28636 7.48321 8.33352 7.60517 8.33352H7.60531C7.72733 8.33352 7.84177 8.28636 7.92762 8.20045L8.20067 7.92746C8.28638 7.84168 8.33367 7.72718 8.33367 7.60515C8.33367 7.48312 8.28638 7.36868 8.20067 7.28284L5.08482 4.16685Z" fill="#333333"/>
</g>
</svg>
